<svg width="26" height="25" viewBox="0 0 26 25" fill="none" xmlns="http://www.w3.org/2000/svg">
<path d="M23.0489 20.7048C21.5616 18.1335 19.2696 16.2898 16.5948 15.4157C17.9178 14.6281 18.9458 13.4279 19.5207 11.9995C20.0957 10.5711 20.1859 8.99348 19.7774 7.50886C19.369 6.02425 18.4845 4.71476 17.2598 3.78149C16.0351 2.84822 14.5379 2.34277 12.9981 2.34277C11.4583 2.34277 9.9611 2.84822 8.73639 3.78149C7.51168 4.71476 6.62718 6.02425 6.21873 7.50886C5.81027 8.99348 5.90045 10.5711 6.47541 11.9995C7.05037 13.4279 8.07832 14.6281 9.4014 15.4157C6.7266 16.2888 4.43461 18.1325 2.9473 20.7048C2.89276 20.7937 2.85658 20.8927 2.8409 20.9958C2.82523 21.099 2.83036 21.2042 2.85602 21.3053C2.88167 21.4065 2.92731 21.5014 2.99026 21.5846C3.05321 21.6678 3.13218 21.7376 3.22252 21.7897C3.31286 21.8419 3.41274 21.8755 3.51625 21.8884C3.61977 21.9014 3.72484 21.8935 3.82525 21.8652C3.92566 21.8369 4.01939 21.7888 4.1009 21.7236C4.18241 21.6585 4.25006 21.5777 4.29984 21.4861C6.13968 18.3064 9.39164 16.4079 12.9981 16.4079C16.6045 16.4079 19.8565 18.3064 21.6963 21.4861C21.7461 21.5777 21.8137 21.6585 21.8953 21.7236C21.9768 21.7888 22.0705 21.8369 22.1709 21.8652C22.2713 21.8935 22.3764 21.9014 22.4799 21.8884C22.5834 21.8755 22.6833 21.8419 22.7736 21.7897C22.864 21.7376 22.943 21.6678 23.0059 21.5846C23.0688 21.5014 23.1145 21.4065 23.1401 21.3053C23.1658 21.2042 23.1709 21.099 23.1553 20.9958C23.1396 20.8927 23.1034 20.7937 23.0489 20.7048ZM7.52933 9.37668C7.52933 8.29506 7.85007 7.23774 8.45098 6.33841C9.0519 5.43907 9.906 4.73813 10.9053 4.32421C11.9046 3.9103 13.0041 3.802 14.065 4.01301C15.1258 4.22402 16.1003 4.74487 16.8651 5.50969C17.6299 6.27451 18.1507 7.24895 18.3617 8.30978C18.5728 9.37061 18.4645 10.4702 18.0505 11.4695C17.6366 12.4688 16.9357 13.3229 16.0364 13.9238C15.137 14.5247 14.0797 14.8454 12.9981 14.8454C11.5482 14.8439 10.1581 14.2672 9.1328 13.242C8.10755 12.2167 7.53088 10.8266 7.52933 9.37668Z" fill="#797979"/>
</svg>
